Coordinates
version=1
nRows=22
nColumns=24
inDegrees=yes

Units are S.I. units (second, meters, Newtons, ...)
Angles are in degrees.

endheader
time	pelvis_tilt	pelvis_list	pelvis_rotation	pelvis_tx	pelvis_ty	pelvis_tz	hip_flexion_r	hip_adduction_r	hip_rotation_r	knee_angle_r	ankle_angle_r	subtalar_angle_r	mtp_angle_r	hip_flexion_l	hip_adduction_l	hip_rotation_l	knee_angle_l	ankle_angle_l	subtalar_angle_l	mtp_angle_l	lumbar_extension	lumbar_bending	lumbar_rotation
      2.48000000	     -5.65514668	      1.40801148	    361.72482602	      0.11058862	      1.39170517	     -1.01512085	     14.51337842	      2.17473249	      0.63598065	    -14.31624503	      0.15647595	     -5.60861121	      3.73910989	     20.14418770	      3.49888332	      4.85065280	    -54.70696002	     -0.30631127	     11.68481128	     41.69167849	     -7.71011041	      5.56522669	     13.33940421
      2.48500000	     -5.75472167	      1.55129569	    361.67939425	      0.11511396	      1.39215714	     -1.01463634	     14.27828515	      2.06577199	      0.70209664	    -14.21571273	      0.35951700	     -5.56751744	      3.76008915	     20.73774559	      3.61205652	      4.69957619	    -54.32769239	     -0.00233579	     11.49806518	     41.29484903	     -7.63920145	      5.37983053	     13.41693372
      2.49000000	     -5.82401290	      1.70620852	    361.63251839	      0.11962896	      1.39262697	     -1.01415765	     14.00423558	      1.94524770	      0.78748258	    -14.10257878	      0.56957489	     -5.52452723	      3.78734634	     21.27509578	      3.73586097	      4.54845185	    -53.87318956	      0.25601436	     11.26751574	     40.96153176	     -7.60818084	      5.18930580	     13.47284786
      2.49500000	     -5.90523876	      1.84965733	    361.59624992	      0.12413297	      1.39304840	     -1.01371651	     13.74920745	      1.83047434	      0.83984959	    -13.99967255	      0.78024281	     -5.47832133	      3.81362466	     21.81597043	      3.85063768	      4.40511369	    -53.37370172	      0.49826838	     11.01136583	     40.61708236	     -7.56049096	      5.01013159	     13.53699008
      2.50000000	     -5.98989869	      1.98681608	    361.56687801	      0.12862727	      1.39343190	     -1.01329131	     13.49920951	      1.72003347	      0.88503088	    -13.89795241	      0.98981999	     -5.44023489	      3.83545095	     22.34664192	      3.96006034	      4.26919325	    -52.82326285	      0.72095415	     10.74230157	     40.28211456	     -7.50945868	      4.83396559	     13.59322423
      2.50500000	     -6.06582271	      2.12711319	    361.54385017	      0.13312083	      1.39380921	     -1.01286763	     13.23778750	      1.60478854	      0.91983780	    -13.79201191	      1.19930326	     -5.40390828	      3.85429990	     22.84758814	      4.07180307	      4.13726161	    -52.21134128	      0.91468336	     10.45900304	     39.96758713	     -7.47196830	      4.65441543	     13.63035812
      2.51000000	     -6.13697130	      2.25676566	    361.52805146	      0.13761027	      1.39415093	     -1.01250307	     12.97282872	      1.49434360	      0.93688107	    -13.68989715	      1.41167207	     -5.35348705	      3.86952157	     23.32636004	      4.17977584	      4.01981192	    -51.54938640	      1.09148533	     10.15656244	     39.63164414	     -7.43550225	      4.49446469	     13.67996966
      2.51500000	     -6.22045194	      2.37045461	    361.52173907	      0.14210160	      1.39446135	     -1.01217636	     12.71888760	      1.39687656	      0.96204559	    -13.58293766	      1.61888545	     -5.28221801	      3.87319796	     23.80030554	      4.28118902	      3.93161873	    -50.83581681	      1.24594489	      9.85409173	     39.25610884	     -7.38366197	      4.35308545	     13.71984334
      2.52000000	     -6.30104189	      2.49292936	    361.51475016	      0.14657687	      1.39473076	     -1.01181289	     12.46897010	      1.29365628	      0.96457016	    -13.48674300	      1.82727997	     -5.26483152	      3.88207622	     24.25432684	      4.37839569	      3.81909167	    -50.06979388	      1.37373494	      9.57043699	     38.96310758	     -7.34657859	      4.19703039	     13.72436235
      2.52500000	     -6.36320746	      2.60557116	    361.51247305	      0.15105201	      1.39499310	     -1.01149068	     12.19410879	      1.19680785	      0.97380452	    -13.38066043	      2.03157218	     -5.22287449	      3.89301056	     24.66416193	      4.47424635	      3.73240588	    -49.24479643	      1.47294146	      9.26079503	     38.65239267	     -7.32514488	      4.05475026	     13.74062636
      2.53000000	     -6.42092208	      2.70004004	    361.51216470	      0.15552244	      1.39523364	     -1.01122622	     11.91056765	      1.11456109	      0.99415394	    -13.26521271	      2.23614967	     -5.13569972	      3.89336827	     25.04971742	      4.56256614	      3.67418157	    -48.37450823	      1.54386694	      8.93263831	     38.26862375	     -7.31189956	      3.94185948	     13.76919742
      2.53500000	     -6.48413582	      2.79995990	    361.50857643	      0.15999236	      1.39543289	     -1.01092990	     11.64028953	      1.03049294	      1.00700287	    -13.16257862	      2.43700482	     -5.09211883	      3.89291467	     25.41712084	      4.64721933	      3.60545568	    -47.44500524	      1.59867174	      8.64268320	     37.93558777	     -7.29550120	      3.81870423	     13.77188100
      2.54000000	     -6.55107936	      2.89378019	    361.50354096	      0.16444925	      1.39558581	     -1.01062929	     11.38101503	      0.95436798	      1.00759843	    -13.06960717	      2.63394656	     -5.08011708	      3.90082568	     25.77002405	      4.72109792	      3.53378938	    -46.46715420	      1.62241658	      8.37049144	     37.64845363	     -7.27800486	      3.69755408	     13.77024439
      2.54500000	     -6.57994302	      2.97254940	    361.50161793	      0.16890847	      1.39575042	     -1.01039698	     11.07220389	      0.88773286	      1.00293641	    -12.96079562	      2.82112799	     -5.00352081	      3.89491509	     26.05283468	      4.79473916	      3.50282919	    -45.43384575	      1.65508843	      8.06301012	     37.27275958	     -7.30078202	      3.59852265	     13.80805992
      2.55000000	     -6.62177996	      3.06106752	    361.48175395	      0.17335368	      1.39587386	     -1.01011082	     10.78712500	      0.81929500	      1.03545584	    -12.86528870	      3.00579300	     -4.98086823	      3.90245957	     26.32399075	      4.86290859	      3.45192851	    -44.33742642	      1.62592849	      7.78660646	     36.98555984	     -7.31831245	      3.48936307	     13.81324736
      2.55500000	     -6.68437029	      3.14178825	    361.45504556	      0.17778059	      1.39592520	     -1.00981055	     10.53453581	      0.76248280	      1.08139331	    -12.78444238	      3.19870918	     -4.98747671	      3.92525045	     26.60053669	      4.91635632	      3.39863207	    -43.19696138	      1.55626762	      7.54037584	     36.74960295	     -7.31688087	      3.38954146	     13.81463620
      2.56000000	     -6.74229612	      3.21847533	    361.42145003	      0.18221748	      1.39596626	     -1.00953389	     10.27732729	      0.70812762	      1.12760178	    -12.70209961	      3.37499570	     -4.97765515	      3.94721835	     26.84079133	      4.96894648	      3.36194567	    -41.99384740	      1.47142988	      7.26516153	     36.50534115	     -7.31747745	      3.29204950	     13.84591562
      2.56500000	     -6.77865806	      3.28875250	    361.37861118	      0.18662573	      1.39598046	     -1.00925301	     10.00256045	      0.66236406	      1.17888745	    -12.62632800	      3.55322182	     -4.96165645	      3.97252755	     27.03371806	      5.01045027	      3.33117222	    -40.73927386	      1.36709872	      6.99924463	     36.26709295	     -7.35008070	      3.20287667	     13.88881316
      2.57000000	     -6.82332435	      3.35805087	    361.32517895	      0.19102420	      1.39595557	     -1.00896735	      9.74422271	      0.61946374	      1.24169342	    -12.56128832	      3.73182333	     -4.94670355	      3.99559733	     27.20922562	      5.04668822	      3.30481824	    -39.42792736	      1.23831866	      6.74605852	     36.04655873	     -7.37543077	      3.11605837	     13.93828924
      2.57500000	     -6.86597417	      3.42175895	    361.26496639	      0.19543208	      1.39590931	     -1.00870446	      9.48424990	      0.57999186	      1.30458206	    -12.49601560	      3.89249550	     -4.91042557	      4.01124763	     27.35242848	      5.07771278	      3.29358059	    -38.05692928	      1.09712432	      6.47974707	     35.83611928	     -7.40089820	      3.03350300	     14.01754685
      2.58000000	     -6.92026105	      3.48762857	    361.18762994	      0.19981794	      1.39581282	     -1.00840074	      9.24894184	      0.54436892	      1.39592351	    -12.44979090	      4.07356722	     -4.89676253	      4.03135794	     27.48337947	      5.09758645	      3.27163750	    -36.63172116	      0.91201198	      6.24092791	     35.64740184	     -7.42016327	      2.94807679	     14.08835348
      2.58500000	     -7.02197351	      3.55619008	    361.12389051	      0.20420751	      1.39561962	     -1.00809525	      9.07835230	      0.50481194	      1.46069265	    -12.43150065	      4.24138903	     -4.92758437	      4.05165323	     27.64570409	      5.11965035	      3.26110038	    -35.16363452	      0.72522598	      6.12114413	     35.49471069	     -7.38788933	      2.86234006	     14.11110410
